<svg xmlns="http://www.w3.org/2000/svg" viewBox="0 0 36 34.4"><defs><style>.cls-1{fill:#ff4600;}</style></defs><title>Social media</title><g id="Graphic_Elements" data-name="Graphic Elements"><path class="cls-1" d="M18,1.1A16.1,16.1,0,1,0,34.1,17.2,16.1,16.1,0,0,0,18,1.1Zm7.8,10.3C25.7,12.8,23,23.9,23,23.9a.9.9,0,0,1-.8.6.8.8,0,0,1-.7-.3l-3.4-2.4L16,23.6c-1.1,1.2-1,0-1,0l.4-3.8h0s7-6.1,7.1-6.8h-.1c-.4.1-8.4,5.2-9.3,5.7h-.2L9,17.4a.6.6,0,0,1-.3-.6q0-.2.3-.3c.9-.6,15.9-6,15.9-6a1.1,1.1,0,0,1,.7-.1l.2.3v.7Z"/></g></svg>