<svg xmlns="http://www.w3.org/2000/svg" viewBox="0 0 36 34.4"><defs><style>.cls-1{fill:#ff4600;}</style></defs><title>Social media</title><g id="Graphic_Elements" data-name="Graphic Elements"><path class="cls-1" d="M21.5,16.3a2.1,2.1,0,0,0-2,2.2,2,2,0,0,0,2,2.1,2,2,0,0,0,1.9-2.1A2,2,0,0,0,21.5,16.3Z"/><path class="cls-1" d="M14.3,16.3h0a2.1,2.1,0,0,0-2,2.2,2,2,0,1,0,4,0A2.1,2.1,0,0,0,14.3,16.3Z"/><path class="cls-1" d="M18,1.2a16.1,16.1,0,1,0,16,16A16.1,16.1,0,0,0,18,1.2Zm5.4,24.2h0l-1.3-1.6a6.2,6.2,0,0,0,3.6-2.3l-2.3,1.2a10.9,10.9,0,0,1-2.8.8,12.5,12.5,0,0,1-5.1,0,10.2,10.2,0,0,1-2.8-.9,4.7,4.7,0,0,1-1.5-.6.1.1,0,0,0-.1-.1H11l-.6-.3a6.2,6.2,0,0,0,3.4,2.3l-1.3,1.6c-4.3-.1-5.9-2.9-5.9-2.9A26.3,26.3,0,0,1,9.4,11.1,10.1,10.1,0,0,1,14.9,9l.2.3a14.3,14.3,0,0,0-5.2,2.5l1.2-.5A14.1,14.1,0,0,1,15.5,10h.4a17,17,0,0,1,3.9-.1,19.2,19.2,0,0,1,5.9,1.9,15.3,15.3,0,0,0-4.9-2.5l.3-.3a10.1,10.1,0,0,1,5.5,2.1,26.3,26.3,0,0,1,2.8,11.4A7.2,7.2,0,0,1,23.4,25.4Z"/></g></svg>