<svg xmlns="http://www.w3.org/2000/svg" viewBox="0 0 36 34.4"><defs><style>.cls-1{fill:#ff4600;fill-rule:evenodd;}</style></defs><title>Social media</title><g id="Graphic_Elements" data-name="Graphic Elements"><path class="cls-1" d="M18,1.1A16.2,16.2,0,1,0,34.1,17.2,16.2,16.2,0,0,0,18,1.1Zm8.9,12.7v.5A12.1,12.1,0,0,1,14.7,26.5a12.4,12.4,0,0,1-6.6-1.9H9.2a8.4,8.4,0,0,0,5.3-1.9,4.2,4.2,0,0,1-4-3h1.9A4.4,4.4,0,0,1,9,15.6H9a4.1,4.1,0,0,0,1.9.5A4.2,4.2,0,0,1,9,12.5a4.3,4.3,0,0,1,.6-2.2,12.3,12.3,0,0,0,8.8,4.5c0-.3-.1-.6-.1-1a4.2,4.2,0,0,1,7.4-2.9,13.3,13.3,0,0,0,2.8-1,4.3,4.3,0,0,1-1.9,2.3,6.7,6.7,0,0,0,2.4-.7A7.7,7.7,0,0,1,26.9,13.8Z"/></g></svg>