<svg xmlns="http://www.w3.org/2000/svg" viewBox="0 0 36 34.4"><defs><style>.cls-1{fill:#ff4600;}</style></defs><title>Social media</title><g id="Graphic_Elements" data-name="Graphic Elements"><polygon class="cls-1" points="15.8 20.5 21.4 17.2 15.8 14 15.8 20.5"/><path class="cls-1" d="M18,1.1A16.2,16.2,0,1,0,34.1,17.2,16.2,16.2,0,0,0,18,1.1ZM28.3,22.4a2.8,2.8,0,0,1-1.9,1.9c-1.7.5-8.4.5-8.4.5s-6.8,0-8.4-.5a2.5,2.5,0,0,1-1.9-1.9,25.5,25.5,0,0,1-.5-5.2A25.5,25.5,0,0,1,7.7,12a2.6,2.6,0,0,1,1.9-1.9c1.6-.4,8.4-.4,8.4-.4a72.3,72.3,0,0,1,8.4.4A3,3,0,0,1,28.3,12a31.8,31.8,0,0,1,.4,5.2A31.8,31.8,0,0,1,28.3,22.4Z"/></g></svg>